/* XPM */
static char const * table_xpm[] = {
"32 32 132 2",
"  	c None",
". 	c #1881B5",
"+ 	c #0E7EB6",
"@ 	c #097CB6",
"# 	c #077BB6",
"$ 	c #087BB6",
"% 	c #087BB5",
"& 	c #FFFFFF",
"* 	c #FFC34C",
"= 	c #FFC554",
"- 	c #FFC656",
"; 	c #FFC655",
"> 	c #FFC64F",
", 	c #79B5E9",
"' 	c #FFC54D",
") 	c #FFC856",
"! 	c #FFC958",
"~ 	c #FFC956",
"{ 	c #FFCA51",
"] 	c #7FB9EB",
"^ 	c #097BB5",
"/ 	c #7CB2DE",
"( 	c #7EB4E3",
"_ 	c #7FB5E4",
": 	c #80B6E3",
"< 	c #83B7E1",
"[ 	c #87B8E0",
"} 	c #097BB4",
"| 	c #D1F2FF",
"1 	c #D2F2FF",
"2 	c #D4F3FF",
"3 	c #D8F6FF",
"4 	c #86B4D7",
"5 	c #087AB4",
"6 	c #D1F0FE",
"7 	c #D1EFFD",
"8 	c #D2F0FD",
"9 	c #D3F1FE",
"0 	c #D7F4FF",
"a 	c #86B2D4",
"b 	c #D3F0FD",
"c 	c #D4F1FD",
"d 	c #D5F2FE",
"e 	c #D9F5FF",
"f 	c #87B3D4",
"g 	c #087BB4",
"h 	c #D9F3FF",
"i 	c #DBF4FF",
"j 	c #DCF5FF",
"k 	c #DDF5FF",
"l 	c #E0F8FF",
"m 	c #8CB5D5",
"n 	c #87B1D3",
"o 	c #8AB3D3",
"p 	c #8AB3D4",
"q 	c #8BB4D4",
"r 	c #8EB6D6",
"s 	c #90B8D7",
"t 	c #DEF6FF",
"u 	c #DFF6FF",
"v 	c #E0F7FF",
"w 	c #E4FAFF",
"x 	c #8EB7D5",
"y 	c #DEF5FF",
"z 	c #DEF3FF",
"A 	c #DEF4FF",
"B 	c #DFF5FF",
"C 	c #E3F8FF",
"D 	c #8EB6D5",
"E 	c #E0F6FF",
"F 	c #E0F5FE",
"G 	c #E0F5FF",
"H 	c #E1F6FF",
"I 	c #E6F9FF",
"J 	c #90B5D5",
"K 	c #E6FAFF",
"L 	c #E7FAFF",
"M 	c #E8FAFF",
"N 	c #ECFDFF",
"O 	c #93B9D6",
"P 	c #8FB4D4",
"Q 	c #91B6D4",
"R 	c #92B6D5",
"S 	c #95B9D7",
"T 	c #98BBD8",
"U 	c #EBFBFF",
"V 	c #EBFAFF",
"W 	c #ECFBFF",
"X 	c #EDFBFF",
"Y 	c #F1FEFF",
"Z 	c #96BAD6",
"` 	c #EAF9FF",
" .	c #E9F8FE",
"..	c #EFFCFF",
"+.	c #95B9D5",
"@.	c #EDFAFF",
"#.	c #ECF9FE",
"$.	c #F2FDFF",
"%.	c #97B8D5",
"&.	c #F3FEFF",
"*.	c #F4FEFF",
"=.	c #F8FFFF",
"-.	c #9BBCD6",
";.	c #98B9D4",
">.	c #98BAD4",
",.	c #99BAD5",
"'.	c #9ABAD5",
").	c #9DBDD7",
"!.	c #A0BFD8",
"~.	c #F9FFFF",
"{.	c #FDFFFF",
"].	c #9FBDD6",
"^.	c #077AB4",
"/.	c #F7FDFF",
"(.	c #F5FCFF",
"_.	c #F6FDFF",
":.	c #FBFFFF",
"<.	c #9CBBD6",
"[.	c #FBFEFF",
"}.	c #F8FDFF",
"|.	c #F9FEFF",
"1.	c #9EBCD6",
"2.	c #A3BED7",
"3.	c #A0BCD5",
"4.	c #A0BCD6",
"5.	c #A0BDD6",
"6.	c #A1BDD6",
"7.	c #A3BFD7",
"8.	c #A7C1D9",
"9.	c #A6C0D7",
"0.	c #1982B6",
"a.	c #1677A6",
"                                                                ",
"    . + @ # # # # # $ % $ # # # $ % $ # # # $ % $ # # @ + .     ",
"    + & & & & & & & & & & & & & & & & & & & & & & & & & & +     ",
"    @ & * = - - - ; > , > ; - ; > , > ; - ; > , > ; = * & @     ",
"    $ & ' ) ! ! ! ~ { ] { ~ ! ~ { ] { ~ ! ~ { ] { ~ ) ' & $     ",
"    ^ & / ( _ _ _ : < [ < : _ : < [ < : _ : < [ < : ( / & ^     ",
"    } & | 1 2 2 2 2 3 4 3 2 2 2 3 4 3 2 2 2 3 4 3 2 1 | & }     ",
"    5 & 6 7 8 8 8 9 0 a 0 9 8 9 0 a 0 9 8 9 0 a 0 9 7 6 & 5     ",
"    5 & 9 b c c c d e f e d c d e f e d c d e f e d b 9 & 5     ",
"    g & h i j j j k l m l k j k l m l k j k l m l k i h & g     ",
"    } & n o p p p q r s r q p q r s r q p q r s r q o n & }     ",
"    g & t u v v v v w x w v v v w x w v v v w x w v u t & g     ",
"    5 & y z A A A B C D C B A B C D C B A B C D C B z y & 5     ",
"    5 & E F G G G H I J I H G H I J I H G H I J I H F E & 5     ",
"    5 & I K L L L M N O N M L M N O N M L M N O N M K I & 5     ",
"    g & P Q R R R R S T S R R R S T S R R R S T S R Q P & g     ",
"    5 & U V W W W X Y Z Y X W X Y Z Y X W X Y Z Y X V U & 5     ",
"    5 & `  . . . .` ..+...`  .` ..+...`  .` ..+...`  .` & 5     ",
"    5 & @.#.#.#.#.@.$.%.$.@.#.@.$.%.$.@.#.@.$.%.$.@.#.@.& 5     ",
"    5 & &.&.&.&.&.*.=.-.=.*.&.*.=.-.=.*.&.*.=.-.=.*.&.&.& 5     ",
"    g & ;.>.,.,.,.'.).!.).'.,.'.).!.).'.,.'.).!.).'.>.;.& g     ",
"    5 & ~.=.=.=.=.~.{.].{.~.=.~.{.].{.~.=.~.{.].{.~.=.~.& 5     ",
"    ^.& /.(.(.(.(._.:.<.:._.(._.:.<.:._.(._.:.<.:._.(./.& ^.    ",
"    ^.& [.}.}.}.}.|.& 1.& |.}.|.& 1.& |.}.|.& 1.& |.}.[.& ^.    ",
"    5 & & & & & & & & 2.& & & & & 2.& & & & & 2.& & & & & 5     ",
"    g & 3.4.5.5.5.6.7.8.7.6.5.6.7.8.7.6.5.6.7.8.7.6.4.3.& g     ",
"    } & & & & & & & & 9.& & & & & 9.& & & & & 9.& & & & & }     ",
"    + & & & & & & & & & & & & & & & & & & & & & & & & & & +     ",
"    0.+ } ^.^.^.^.^.5 g 5 ^.^.^.5 g 5 ^.^.^.5 g 5 ^.^.} + a.    ",
"                                                                ",
"                                                                ",
"                                                                "};
